<svg xmlns="http://www.w3.org/2000/svg" xmlns:xlink="http://www.w3.org/1999/xlink" width="500" zoomAndPan="magnify" viewBox="0 0 375 374.999991" height="500" preserveAspectRatio="xMidYMid meet" version="1.0"><defs><g/></defs><g fill="#f4f4f4" fill-opacity="1"><g transform="translate(213.401196, 244.499984)"><g><path d="M 92.671875 -135.28125 L 92.671875 -118.78125 L 90.703125 -118.78125 L 90.703125 -121.734375 C 90.703125 -124.347656 89.785156 -126.601562 87.953125 -128.5 C 86.128906 -130.40625 83.84375 -131.359375 81.09375 -131.359375 L 39.65625 -131.359375 L 39.65625 -70.6875 L 72.84375 -70.6875 C 75.457031 -70.8125 77.679688 -71.789062 79.515625 -73.625 C 81.347656 -75.457031 82.265625 -77.679688 82.265625 -80.296875 L 82.265625 -83.25 L 84.234375 -83.25 L 84.234375 -52.234375 L 82.265625 -52.234375 L 82.265625 -55.171875 C 82.265625 -57.785156 81.378906 -60.007812 79.609375 -61.84375 C 77.847656 -63.675781 75.660156 -64.660156 73.046875 -64.796875 L 39.65625 -64.796875 L 39.65625 -14.328125 C 39.65625 -10.929688 40.898438 -8.019531 43.390625 -5.59375 C 45.878906 -3.175781 48.828125 -1.96875 52.234375 -1.96875 L 54.78125 -1.96875 L 54.78125 0 L 11.78125 0 L 11.78125 -1.96875 L 14.328125 -1.96875 C 17.734375 -1.96875 20.644531 -3.175781 23.0625 -5.59375 C 25.488281 -8.019531 26.769531 -10.929688 26.90625 -14.328125 L 26.90625 -124.28125 C 26.90625 -127.425781 25.625 -130.078125 23.0625 -132.234375 C 20.507812 -134.398438 17.597656 -135.484375 14.328125 -135.484375 L 11.984375 -135.484375 L 11.78125 -137.4375 L 69.3125 -137.4375 C 73.363281 -137.4375 77.78125 -137.828125 82.5625 -138.609375 C 87.34375 -139.398438 90.710938 -140.1875 92.671875 -140.96875 Z M 92.671875 -135.28125 "/></g></g></g><g fill="#f4f4f4" fill-opacity="1"><g transform="translate(32.76699, 239.999984)"><g><path d="M 234.046875 -185.34375 C 234.960938 -185.34375 235.8125 -185.34375 236.59375 -185.34375 L 236.59375 -183.390625 C 230.445312 -183.128906 224.625 -181.6875 219.125 -179.0625 C 213.625 -176.445312 208.972656 -173.335938 205.171875 -169.734375 C 201.378906 -166.140625 197.847656 -161.789062 194.578125 -156.6875 C 189.347656 -148.570312 184.898438 -139.273438 181.234375 -128.796875 L 143.53125 -19.4375 C 140.914062 -11.1875 139.476562 -3.921875 139.21875 2.359375 L 137.453125 2.359375 L 97.390625 -109.75 L 65.78125 -10.796875 C 61.070312 3.992188 53.476562 15.507812 43 23.75 C 35.414062 29.90625 26.910156 32.984375 17.484375 32.984375 C 14.210938 32.984375 10.742188 32.59375 7.078125 31.8125 L 7.46875 29.84375 C 9.425781 30.238281 11.679688 30.4375 14.234375 30.4375 C 16.796875 30.4375 20.203125 29.648438 24.453125 28.078125 C 28.703125 26.503906 32.921875 23.691406 37.109375 19.640625 C 45.617188 11.390625 52.164062 1.046875 56.75 -11.390625 L 17.09375 -123.5 C 15.519531 -127.425781 13.097656 -130.40625 9.828125 -132.4375 C 6.554688 -134.46875 3.21875 -135.484375 -0.1875 -135.484375 L -1.765625 -135.484375 L -1.765625 -137.4375 L 41.828125 -137.4375 L 41.828125 -135.484375 L 40.0625 -135.484375 C 37.3125 -135.484375 35.25 -134.597656 33.875 -132.828125 C 32.5 -131.054688 31.8125 -129.382812 31.8125 -127.8125 C 31.8125 -126.25 32.007812 -124.8125 32.40625 -123.5 L 62.25 -27.875 L 98.765625 -140.578125 L 100.53125 -140.390625 L 139.40625 -31.609375 L 168.46875 -128.796875 C 171.875 -140.191406 177.109375 -150.46875 184.171875 -159.625 C 197.265625 -176.769531 213.890625 -185.34375 234.046875 -185.34375 Z M 234.046875 -185.34375 "/></g></g></g><path fill="#2b2b2b" d="M 59.46875 199.410156 L 315.417969 199.410156 L 315.417969 228.511719 L 59.46875 228.511719 L 59.46875 199.410156 " fill-opacity="1" fill-rule="nonzero"/><g fill="#f4f4f4" fill-opacity="1"><g transform="translate(69.173562, 219.21006)"><g><path d="M 7.230469 -11.785156 L 9.070312 -7.308594 L 6.90625 -2.003906 L 3.160156 -11.765625 C 2.570312 -13.324219 2.429688 -13.730469 3.058594 -13.910156 L 3.058594 -14.175781 L -0.0820312 -14.175781 L -0.0820312 -13.910156 C 0.363281 -13.730469 0.832031 -13.324219 1.417969 -11.765625 L 5.894531 0 L 6.460938 0 L 9.253906 -6.863281 L 12.070312 0 L 12.636719 0 L 16.867188 -11.765625 C 17.433594 -13.304688 17.921875 -13.730469 18.488281 -13.910156 L 18.488281 -14.175781 L 16.199219 -14.175781 L 16.199219 -13.910156 C 16.886719 -13.769531 17.011719 -13.082031 16.523438 -11.765625 L 13 -2.046875 L 10.265625 -8.667969 L 11.402344 -11.765625 C 11.96875 -13.304688 12.453125 -13.730469 13.019531 -13.910156 L 13.019531 -14.175781 L 10.792969 -14.175781 L 10.792969 -13.910156 C 11.460938 -13.769531 11.542969 -13.101562 11.035156 -11.765625 L 10.0625 -9.132812 L 8.972656 -11.804688 C 8.34375 -13.324219 8.179688 -13.730469 8.789062 -13.910156 L 8.789062 -14.175781 L 5.691406 -14.175781 L 5.691406 -13.910156 C 6.136719 -13.730469 6.621094 -13.324219 7.230469 -11.785156 Z M 7.230469 -11.785156 "/></g></g></g><g fill="#f4f4f4" fill-opacity="1"><g transform="translate(90.720608, 219.21006)"><g><path d="M -0.34375 0 L 1.945312 0 L 1.945312 -0.261719 C 1.253906 -0.40625 1.175781 -1.074219 1.699219 -2.390625 L 2.894531 -5.347656 L 8.605469 -5.347656 L 9.839844 -2.371094 C 10.488281 -0.851562 10.652344 -0.445312 10.023438 -0.261719 L 10.023438 0 L 13.164062 0 L 13.164062 -0.261719 C 12.738281 -0.445312 12.25 -0.851562 11.625 -2.371094 L 6.640625 -14.335938 L 5.125 -13.648438 L 5.304688 -13.222656 C 5.46875 -12.898438 5.488281 -12.636719 5.347656 -12.273438 L 1.355469 -2.390625 C 0.730469 -0.851562 0.222656 -0.445312 -0.34375 -0.261719 Z M 3.015625 -5.648438 L 5.710938 -12.3125 L 8.484375 -5.648438 Z M 3.015625 -5.648438 "/></g></g></g><g fill="#f4f4f4" fill-opacity="1"><g transform="translate(106.881161, 219.21006)"><g><path d="M 1.03125 0 L 4.3125 0 L 4.3125 -0.261719 C 3.683594 -0.445312 3.503906 -0.910156 3.503906 -2.570312 L 3.503906 -6.054688 L 5 -7.59375 L 5.40625 -7.59375 C 7.453125 -7.65625 7.753906 -6.417969 9.09375 -3.140625 C 10.0625 -0.769531 10.429688 0.101562 11.90625 0.101562 C 12.332031 0.101562 12.777344 0.0625 13.121094 -0.0390625 L 13.121094 -0.304688 C 13 -0.285156 12.898438 -0.285156 12.777344 -0.285156 C 12.128906 -0.285156 11.683594 -0.992188 10.652344 -3.585938 C 9.273438 -7.046875 8.808594 -8.140625 5.792969 -7.9375 L 5.324219 -7.917969 L 9.640625 -12.332031 C 10.792969 -13.527344 11.644531 -13.730469 12.292969 -13.910156 L 12.292969 -14.175781 L 9.476562 -14.175781 L 9.476562 -13.992188 C 10.265625 -13.871094 10.085938 -13.203125 8.808594 -11.886719 L 3.503906 -6.460938 L 3.503906 -11.601562 C 3.503906 -13.265625 3.683594 -13.730469 4.3125 -13.910156 L 4.3125 -14.175781 L 1.03125 -14.175781 L 1.03125 -13.910156 C 1.640625 -13.730469 1.84375 -13.265625 1.84375 -11.601562 L 1.84375 -2.570312 C 1.84375 -0.910156 1.640625 -0.445312 1.03125 -0.261719 Z M 1.03125 0 "/></g></g></g><g fill="#f4f4f4" fill-opacity="1"><g transform="translate(123.021467, 219.21006)"><g><path d="M -0.34375 0 L 1.945312 0 L 1.945312 -0.261719 C 1.253906 -0.40625 1.175781 -1.074219 1.699219 -2.390625 L 2.894531 -5.347656 L 8.605469 -5.347656 L 9.839844 -2.371094 C 10.488281 -0.851562 10.652344 -0.445312 10.023438 -0.261719 L 10.023438 0 L 13.164062 0 L 13.164062 -0.261719 C 12.738281 -0.445312 12.25 -0.851562 11.625 -2.371094 L 6.640625 -14.335938 L 5.125 -13.648438 L 5.304688 -13.222656 C 5.46875 -12.898438 5.488281 -12.636719 5.347656 -12.273438 L 1.355469 -2.390625 C 0.730469 -0.851562 0.222656 -0.445312 -0.34375 -0.261719 Z M 3.015625 -5.648438 L 5.710938 -12.3125 L 8.484375 -5.648438 Z M 3.015625 -5.648438 "/></g></g></g><g fill="#f4f4f4" fill-opacity="1"><g transform="translate(139.182022, 219.21006)"><g><path d="M 11.726562 0.160156 L 11.988281 0.160156 L 11.988281 -11.601562 C 11.988281 -13.265625 12.171875 -13.730469 12.796875 -13.910156 L 12.796875 -14.175781 L 10.246094 -14.175781 L 10.246094 -13.910156 C 11.15625 -13.667969 11.644531 -13.101562 11.644531 -10.792969 L 11.644531 -2.714844 L 2.792969 -14.175781 L 0.808594 -14.175781 L 0.808594 -13.910156 C 1.621094 -13.730469 1.863281 -13.265625 1.863281 -11.601562 L 1.863281 -2.570312 C 1.863281 -0.910156 1.660156 -0.445312 1.054688 -0.261719 L 1.054688 0 L 3.585938 0 L 3.585938 -0.261719 C 2.671875 -0.507812 2.1875 -1.074219 2.1875 -3.382812 L 2.1875 -12.25 Z M 11.726562 0.160156 "/></g></g></g><g fill="#f4f4f4" fill-opacity="1"><g transform="translate(155.970333, 219.21006)"><g><path d="M 1.03125 0 L 6.339844 0 C 10.792969 0 13.667969 -3.078125 13.648438 -7.351562 C 13.628906 -10.632812 11.441406 -14.175781 5.871094 -14.175781 L 1.03125 -14.175781 L 1.03125 -13.910156 C 1.640625 -13.730469 1.84375 -13.265625 1.84375 -11.601562 L 1.84375 -2.570312 C 1.84375 -0.910156 1.640625 -0.445312 1.03125 -0.261719 Z M 3.503906 -1.78125 L 3.503906 -13.871094 L 4.878906 -13.871094 C 9.394531 -13.871094 11.804688 -10.589844 11.804688 -6.539062 C 11.804688 -2.308594 9.839844 -0.304688 6.296875 -0.304688 L 4.820312 -0.304688 C 3.707031 -0.304688 3.503906 -0.832031 3.503906 -1.78125 Z M 3.503906 -1.78125 "/></g></g></g><g fill="#f4f4f4" fill-opacity="1"><g transform="translate(173.831892, 219.21006)"><g><path d="M -0.34375 0 L 1.945312 0 L 1.945312 -0.261719 C 1.253906 -0.40625 1.175781 -1.074219 1.699219 -2.390625 L 2.894531 -5.347656 L 8.605469 -5.347656 L 9.839844 -2.371094 C 10.488281 -0.851562 10.652344 -0.445312 10.023438 -0.261719 L 10.023438 0 L 13.164062 0 L 13.164062 -0.261719 C 12.738281 -0.445312 12.25 -0.851562 11.625 -2.371094 L 6.640625 -14.335938 L 5.125 -13.648438 L 5.304688 -13.222656 C 5.46875 -12.898438 5.488281 -12.636719 5.347656 -12.273438 L 1.355469 -2.390625 C 0.730469 -0.851562 0.222656 -0.445312 -0.34375 -0.261719 Z M 3.015625 -5.648438 L 5.710938 -12.3125 L 8.484375 -5.648438 Z M 3.015625 -5.648438 "/></g></g></g><g fill="#f4f4f4" fill-opacity="1"><g transform="translate(189.992448, 219.21006)"><g/></g></g><g fill="#f4f4f4" fill-opacity="1"><g transform="translate(197.42527, 219.21006)"><g><path d="M 1.03125 0 L 4.3125 0 L 4.3125 -0.261719 C 3.683594 -0.445312 3.503906 -0.910156 3.503906 -2.570312 L 3.503906 -7.59375 L 5.914062 -7.59375 C 8.222656 -7.59375 8.789062 -7.109375 9.050781 -6.195312 L 9.292969 -6.195312 L 9.292969 -9.273438 L 9.050781 -9.273438 C 8.789062 -8.382812 8.222656 -7.898438 5.914062 -7.917969 L 3.503906 -7.917969 L 3.503906 -13.851562 L 7.085938 -13.851562 C 8.992188 -13.851562 9.839844 -13.34375 10.53125 -11.988281 L 10.753906 -12.046875 L 10.570312 -14.175781 L 1.03125 -14.175781 L 1.03125 -13.910156 C 1.640625 -13.730469 1.84375 -13.265625 1.84375 -11.601562 L 1.84375 -2.570312 C 1.84375 -0.910156 1.640625 -0.445312 1.03125 -0.261719 Z M 1.03125 0 "/></g></g></g><g fill="#f4f4f4" fill-opacity="1"><g transform="translate(211.925334, 219.21006)"><g><path d="M 8.261719 0.203125 C 11.664062 0.203125 15.429688 -2.023438 15.429688 -7.027344 C 15.429688 -11.988281 11.683594 -14.335938 8.261719 -14.335938 C 3.96875 -14.335938 1.054688 -11.257812 1.054688 -7.109375 C 1.054688 -2.085938 4.820312 0.203125 8.261719 0.203125 Z M 2.671875 -8.28125 C 2.550781 -11.582031 4.355469 -13.871094 7.433594 -13.871094 C 11.054688 -13.871094 13.710938 -9.921875 13.851562 -5.691406 C 13.953125 -2.652344 12.351562 -0.304688 9.113281 -0.304688 C 5.488281 -0.304688 2.816406 -4.210938 2.671875 -8.28125 Z M 2.671875 -8.28125 "/></g></g></g><g fill="#f4f4f4" fill-opacity="1"><g transform="translate(231.568888, 219.21006)"><g><path d="M 11.339844 0.140625 C 11.746094 0.140625 12.273438 0.101562 12.574219 0 L 12.574219 -0.242188 C 12.472656 -0.222656 12.371094 -0.222656 12.25 -0.222656 C 11.5625 -0.222656 11.15625 -0.890625 10.1875 -3.320312 C 9.214844 -5.8125 8.828125 -7.046875 6.339844 -7.371094 C 8.972656 -7.675781 10.347656 -9.113281 10.347656 -11.015625 C 10.347656 -12.816406 9.132812 -14.175781 5.023438 -14.175781 L 1.03125 -14.175781 L 1.03125 -13.910156 C 1.660156 -13.730469 1.84375 -13.265625 1.84375 -11.601562 L 1.84375 -2.570312 C 1.84375 -0.910156 1.660156 -0.445312 1.03125 -0.261719 L 1.03125 0 L 4.3125 0 L 4.3125 -0.261719 C 3.683594 -0.445312 3.503906 -0.910156 3.503906 -2.570312 L 3.503906 -7.308594 L 4.800781 -7.308594 C 7.230469 -7.308594 7.390625 -5.894531 8.566406 -3.097656 C 9.457031 -0.992188 9.78125 0.140625 11.339844 0.140625 Z M 3.503906 -7.613281 L 3.503906 -13.832031 C 3.828125 -13.851562 4.152344 -13.871094 4.453125 -13.871094 C 7.453125 -13.871094 8.625 -12.351562 8.625 -10.550781 C 8.625 -8.828125 7.53125 -7.613281 5.203125 -7.613281 Z M 3.503906 -7.613281 "/></g></g></g><g fill="#f4f4f4" fill-opacity="1"><g transform="translate(247.142202, 219.21006)"><g><path d="M 1.03125 0 L 11.015625 0 L 11.179688 -2.691406 L 10.957031 -2.734375 C 10.226562 -0.851562 8.992188 -0.304688 7.046875 -0.304688 L 4.414062 -0.304688 C 3.828125 -0.304688 3.503906 -0.628906 3.503906 -1.214844 L 3.503906 -7.433594 L 6.09375 -7.433594 C 8.402344 -7.433594 8.992188 -6.964844 9.234375 -6.054688 L 9.476562 -6.054688 L 9.476562 -9.113281 L 9.234375 -9.113281 C 8.992188 -8.203125 8.402344 -7.734375 6.09375 -7.734375 L 3.503906 -7.734375 L 3.503906 -13.871094 L 6.480469 -13.871094 C 8.546875 -13.871094 9.742188 -13.265625 10.449219 -11.480469 L 10.671875 -11.542969 L 10.449219 -14.175781 L 1.03125 -14.175781 L 1.03125 -13.910156 C 1.640625 -13.730469 1.84375 -13.265625 1.84375 -11.601562 L 1.84375 -2.570312 C 1.84375 -0.910156 1.640625 -0.445312 1.03125 -0.261719 Z M 1.03125 0 "/></g></g></g><g fill="#f4f4f4" fill-opacity="1"><g transform="translate(262.249752, 219.21006)"><g><path d="M 1.4375 -11.785156 L 6.175781 0.101562 L 6.742188 0.101562 L 11.339844 -11.785156 C 11.925781 -13.324219 12.433594 -13.730469 12.980469 -13.910156 L 12.980469 -14.175781 L 10.710938 -14.175781 L 10.710938 -13.910156 C 11.402344 -13.769531 11.480469 -13.101562 10.976562 -11.765625 L 7.128906 -1.761719 L 3.21875 -11.785156 C 2.613281 -13.324219 2.46875 -13.730469 3.078125 -13.910156 L 3.078125 -14.175781 L -0.0820312 -14.175781 L -0.0820312 -13.910156 C 0.34375 -13.730469 0.832031 -13.324219 1.4375 -11.785156 Z M 1.4375 -11.785156 "/></g></g></g><g fill="#f4f4f4" fill-opacity="1"><g transform="translate(278.309062, 219.21006)"><g><path d="M 1.03125 0 L 11.015625 0 L 11.179688 -2.691406 L 10.957031 -2.734375 C 10.226562 -0.851562 8.992188 -0.304688 7.046875 -0.304688 L 4.414062 -0.304688 C 3.828125 -0.304688 3.503906 -0.628906 3.503906 -1.214844 L 3.503906 -7.433594 L 6.09375 -7.433594 C 8.402344 -7.433594 8.992188 -6.964844 9.234375 -6.054688 L 9.476562 -6.054688 L 9.476562 -9.113281 L 9.234375 -9.113281 C 8.992188 -8.203125 8.402344 -7.734375 6.09375 -7.734375 L 3.503906 -7.734375 L 3.503906 -13.871094 L 6.480469 -13.871094 C 8.546875 -13.871094 9.742188 -13.265625 10.449219 -11.480469 L 10.671875 -11.542969 L 10.449219 -14.175781 L 1.03125 -14.175781 L 1.03125 -13.910156 C 1.640625 -13.730469 1.84375 -13.265625 1.84375 -11.601562 L 1.84375 -2.570312 C 1.84375 -0.910156 1.640625 -0.445312 1.03125 -0.261719 Z M 1.03125 0 "/></g></g></g><g fill="#f4f4f4" fill-opacity="1"><g transform="translate(293.416613, 219.21006)"><g><path d="M 11.339844 0.140625 C 11.746094 0.140625 12.273438 0.101562 12.574219 0 L 12.574219 -0.242188 C 12.472656 -0.222656 12.371094 -0.222656 12.25 -0.222656 C 11.5625 -0.222656 11.15625 -0.890625 10.1875 -3.320312 C 9.214844 -5.8125 8.828125 -7.046875 6.339844 -7.371094 C 8.972656 -7.675781 10.347656 -9.113281 10.347656 -11.015625 C 10.347656 -12.816406 9.132812 -14.175781 5.023438 -14.175781 L 1.03125 -14.175781 L 1.03125 -13.910156 C 1.660156 -13.730469 1.84375 -13.265625 1.84375 -11.601562 L 1.84375 -2.570312 C 1.84375 -0.910156 1.660156 -0.445312 1.03125 -0.261719 L 1.03125 0 L 4.3125 0 L 4.3125 -0.261719 C 3.683594 -0.445312 3.503906 -0.910156 3.503906 -2.570312 L 3.503906 -7.308594 L 4.800781 -7.308594 C 7.230469 -7.308594 7.390625 -5.894531 8.566406 -3.097656 C 9.457031 -0.992188 9.78125 0.140625 11.339844 0.140625 Z M 3.503906 -7.613281 L 3.503906 -13.832031 C 3.828125 -13.851562 4.152344 -13.871094 4.453125 -13.871094 C 7.453125 -13.871094 8.625 -12.351562 8.625 -10.550781 C 8.625 -8.828125 7.53125 -7.613281 5.203125 -7.613281 Z M 3.503906 -7.613281 "/></g></g></g></svg>